<svg width="111" height="40" xmlns="http://www.w3.org/2000/svg">

 <g>
  <title>Layer 1</title>
  <path stroke="null" id="svg_1" fill="#f65858" d="m97.24424,23.04905a1.19384,1.19384 0 0 0 -0.07784,-0.32411c-0.26184,-0.68078 -1.45355,-0.046 -1.86046,0.12455c-0.73244,0.30713 -1.57032,0.71191 -2.38131,0.4798c-0.22433,-0.0644 -0.15852,-0.25547 0,-0.35313c0.07926,-0.04812 2.16193,-1.22639 2.77477,-3.83769c0.98083,-4.17737 -2.02889,-5.33936 -3.21636,-5.48019c-1.20728,-0.14295 -2.55398,0.04317 -3.12153,0.27174c-1.60853,0.6461 -2.02818,2.08267 -2.13928,2.9432c-0.15215,1.18322 -0.16984,3.2482 -0.31633,4.17737c-0.09624,0.61213 -0.55198,1.5413 -1.44931,1.45284c-1.73167,-0.17055 -2.52709,-0.83505 -2.47189,-1.92627c0.03821,-0.76711 0.0276,-0.91997 0.26891,-2.62121c0.20735,-1.4578 0.33827,-1.80526 0.33827,-2.13858c0,-0.95465 -1.283,-1.14713 -1.71185,-0.71758c-0.33119,0.3319 -0.41399,1.00914 -0.49678,2.15273c-0.07784,1.07495 -0.24273,2.4733 -0.45574,3.32604c-0.33119,1.32829 -0.46423,1.42525 -0.76641,1.80526c-0.6277,0.78976 -1.78757,0.54491 -2.35371,0.00637c-0.3326,-0.31704 -0.3779,-0.59798 -0.3135,-1.52856c0.0644,-0.93058 0.21655,-2.55185 0.43026,-4.24248c0.18612,-1.47903 0.05803,-1.70124 -0.39629,-2.11593c-0.42248,-0.38639 -2.04092,-0.32907 -2.79034,-0.32907c-1.15987,0 -1.09052,0.55198 -1.16695,2.43438c-0.03326,0.8216 -0.07147,2.06852 -0.15356,3.03378c-0.13304,1.57102 -3.13143,2.75283 -4.50997,2.68207c-1.42878,-0.0736 -1.56607,-2.7408 -1.65595,-3.36143c-0.09129,-0.61992 -0.12738,-5.97273 0.02689,-6.1546c0.10969,-0.12738 0.96951,-0.22504 1.94963,-0.41682c2.17042,-0.4246 2.4825,-0.70342 2.48533,-1.38279c0.00142,-0.33331 -0.01981,-0.79967 -0.38922,-0.92492c-0.21655,-0.0736 -0.77844,-0.1571 -1.52361,-0.24485c-2.14919,-0.25335 -2.45207,-0.1755 -2.4641,-0.44795c-0.02052,-0.47697 0.02477,-1.39482 -0.01345,-1.75643c-0.09341,-0.88883 -1.1351,-1.18747 -2.30842,-1.10962c-0.23141,0.01486 -0.55198,0.08987 -0.57746,0.39983c-0.02548,0.31067 -0.02335,0.54986 -0.06086,1.07566c-0.0828,1.16836 -0.10615,1.29503 -0.55906,1.29291c-0.40337,-0.00212 -3.75914,-0.29864 -4.40382,-0.092c-0.64539,0.20664 -0.61921,0.6461 -0.67087,0.86619c-0.05166,0.21938 0.06369,1.53776 0.1288,2.10673c0.0644,0.56826 0.18895,1.34174 0.26608,1.4578c0.07784,0.11677 0.31987,0.44654 0.99357,0.36233c2.2886,-0.28661 3.81504,-0.63266 4.125,-0.70979c0.30925,-0.07784 0.34463,-0.11677 0.34817,0.1288c0.00142,0.13941 0.05944,2.934 0.06935,3.76409c0.01628,1.41958 0.25618,5.53185 -3.56948,6.16946c-1.59155,0.26538 -3.08331,-0.19815 -3.76197,-0.94615c-0.38497,-0.4246 -0.19602,-0.4798 -0.02618,-0.75579c0.25759,-0.41965 2.40749,-2.94532 0.60576,-5.56511c-1.06221,-1.54555 -3.60982,-1.66798 -4.53474,-1.26673c-0.71687,0.31067 -1.29645,1.2738 -1.40826,2.44853c-0.34534,3.62326 1.72813,5.86445 1.8088,6.00245c0.09624,0.16559 -0.26608,0.69918 -1.53281,0.88459c-1.69841,0.2491 -4.30617,-1.7996 -4.23894,-2.06639c0.03326,-0.12738 1.18818,-2.01898 1.21578,-3.84689c0.0092,-0.62204 -0.19602,-1.44081 -0.62133,-2.26808c-0.42602,-0.82726 -1.76634,-2.1039 -3.21706,-1.82366c-3.41379,0.65813 -3.02458,4.03088 -2.78822,4.95156c0.49112,1.90363 1.64108,3.58364 1.82862,3.91978c0.25547,0.45645 -7.22318,3.42441 -7.51261,0.6461c-0.28802,-2.75425 3.80089,-8.693 3.4789,-10.99717c-0.29014,-2.07559 -1.68567,-2.5101 -2.89932,-2.53133c-1.17968,-0.02123 -1.49106,0.16701 -1.89018,0.39913c-0.22999,0.13375 -0.56047,0.39842 -1.01904,-0.03892c-0.30501,-0.29085 -0.50669,-0.49466 -0.82939,-0.75296c-0.16347,-0.13092 -0.42531,-0.29722 -0.86406,-0.36162c-0.43875,-0.0644 -1.00631,0 -1.36722,0.15498c-0.36091,0.15569 -0.64539,0.42672 -0.94191,0.68502c-0.29722,0.2583 -1.04947,1.10326 -1.75077,0.79188c-0.3043,-0.13516 -1.33537,-0.65106 -2.07842,-0.97304c-1.43586,-0.62275 -3.5065,0.38568 -4.25167,1.71327c-1.11033,1.97581 -3.30057,9.73752 -3.63176,10.76081c-0.74447,2.29851 0.9412,4.17242 3.21636,4.06485c0.96101,-0.046 1.60145,-0.39771 2.20863,-1.5045c0.351,-0.63903 3.64874,-9.26834 3.89359,-9.68162c0.17833,-0.30076 0.77136,-0.69635 1.2738,-0.43875c0.50386,0.25901 0.60364,0.79825 0.52934,1.30565c-0.1203,0.8209 -2.4457,6.08595 -2.53487,6.6811c-0.15215,1.01338 0.32836,1.57669 1.37783,1.63188c0.71899,0.03751 1.43586,-0.2215 2.00483,-1.29645c0.31845,-0.60081 3.98488,-7.95986 4.3097,-8.45098c0.35667,-0.53924 0.64398,-0.71687 1.00631,-0.69776c0.28236,0.01415 0.73314,0.08704 0.61992,0.93342c-0.1104,0.82939 -3.05855,6.22961 -3.3685,7.55154c-0.46918,2.00553 0.81453,4.70317 4.25309,4.82701c1.70831,0.06227 5.66277,-0.68361 7.89051,-2.37564c0.80887,-0.61426 0.59515,-0.66733 1.09901,-0.22009c0.72536,0.64327 2.07135,1.54909 3.39681,1.54909c3.00972,0 5.20774,-1.8824 5.30752,-1.95034a0.07855,0.07855 0 0 1 0.10261,0.01203c0.18258,0.19815 2.0487,1.23913 3.35647,1.2823c3.11304,0.10261 4.95651,-1.62764 5.65286,-2.44217a15.58995,15.58995 0 0 0 1.07,-1.40614a0.1111,0.1111 0 0 1 0.17409,-0.01274c0.18612,0.20522 1.59013,2.78963 4.37906,2.43297c1.55546,-0.19885 3.86883,-1.5137 4.03088,-1.69133a0.07077,0.07077 0 0 1 0.1203,0.02477c0.08138,0.22504 0.43734,1.49318 1.86329,2.50161c1.16907,0.82726 3.41946,0.99286 4.41798,0.443c0.82797,-0.45574 1.15987,-0.7473 1.73945,-1.32759c0.2491,-0.24981 0.62841,-0.50244 1.31202,-0.35737c0.76428,0.16206 2.78397,0.52014 2.91277,0.5817c0.14507,0.06864 0.16772,0.3326 0.12455,0.6086c-0.06935,0.43451 -0.23353,1.95741 -0.40054,3.37912c-0.16772,1.42171 -0.70342,6.16521 0.56614,6.34071c0.76711,0.10615 1.43303,-0.62133 1.60924,-1.33113c0.44159,-1.7812 0.52226,-3.78603 0.8124,-5.50566c0.34676,-2.04729 0.48405,-2.62121 0.6086,-2.84978c0.10332,-0.18966 0.10332,-0.14507 1.53352,-0.02335c0.99074,0.08492 1.79465,0.22292 2.98849,0.05591c0.98932,-0.1387 3.01962,-0.88883 2.91064,-2.10602m-49.46393,-4.60126c-0.04741,0.67016 -0.21938,1.09476 -0.57392,1.71185c-0.2215,0.38497 -0.45079,0.09695 -0.58383,-0.09341c-0.19107,-0.27316 -1.16765,-2.64951 -0.42177,-3.13993c0.21018,-0.138 0.62699,-0.21725 0.92846,-0.04812c0.30147,0.16843 0.48334,0.41399 0.56614,0.68785c0.08492,0.27811 0.11606,0.4338 0.08492,0.88176m9.2648,0.34534c-0.08704,0.77136 -0.41399,1.20799 -0.53429,1.37005c-0.21301,0.2859 -0.29864,0.39842 -0.50244,0.19107c-0.16559,-0.16843 -0.7848,-1.42949 -0.87397,-2.261c-0.04883,-0.44725 0.07501,-1.08627 0.45008,-1.2363c0.39488,-0.15781 0.79471,-0.08634 1.07566,0.28094c0.44088,0.57817 0.44725,1.10679 0.38497,1.65524m33.62206,3.38053c-0.46494,0.19107 -0.66733,0.07431 -0.64044,-0.69493c0.00566,-0.16559 0.75225,-4.02451 2.17962,-4.72369c0.40479,-0.19815 0.81523,-0.18966 1.09972,0.12738c0.53783,0.5994 0.39629,1.5229 -0.00849,2.36503c-0.58595,1.22214 -1.99138,2.66367 -2.63041,2.92621"/>
  <rect transform="rotate(-21.6679 23.6419 19.8277)" stroke="#e6e6e6" id="svg_2" height="23.59124" width="28.84999" y="8.03206" x="9.21688" stroke-width="4" fill="#e6e6e6"/>
  <path stroke="#0b98ab" d="m18.45725,10.62282c-0.10449,0 -0.20899,0 -0.41798,0c-0.10449,0 -0.31348,0 -0.62697,0c-0.20899,0 -0.65083,-0.01956 -0.94045,0.13214c-0.40958,0.21454 -0.69277,0.34684 -1.04494,0.66068c-0.30797,0.27444 -0.55351,0.60966 -0.83595,0.92496c-0.35033,0.39108 -0.73738,0.64979 -1.04494,0.92496c-0.42651,0.38159 -0.67073,0.56245 -0.83595,1.18923c-0.03304,0.12536 -0.10449,0.52855 -0.10449,0.66068c0,0.13214 -0.03213,0.28885 0.10449,0.52855c0.08641,0.1516 0.31348,0.39641 0.41798,0.66068c0.10449,0.26427 0.12134,0.50163 0.52247,0.92496c0.17939,0.18932 0.52247,0.66069 0.94045,1.18923c0.20899,0.26427 0.65596,0.77775 1.14944,1.18923c0.46978,0.39172 1.03246,0.69398 1.67191,1.0571c0.51333,0.2915 1.32734,0.60301 1.8809,0.92496c0.60042,0.34921 1.03256,0.42155 1.35843,0.66068c0.20209,0.1483 0.31348,0.26427 0.41798,0.26427c0.1045,0 0.24832,0.01061 0.41798,0.52855c0.07998,0.24416 -0.06497,0.66545 -0.10449,0.92496c-0.10642,0.69874 -0.38988,1.09464 -0.94045,1.71778c-0.49856,0.56428 -1.57715,1.2945 -2.50786,1.84992c-1.05654,0.63051 -1.74755,1.05061 -3.03033,1.45351c-0.61687,0.19375 -1.36156,0.46397 -1.7764,0.52855c-0.42761,0.06657 -0.52247,0.13214 -0.62697,0.13214c-0.20899,0 -0.38737,-0.0387 -0.31348,-0.13214c0.07389,-0.09344 -0.14778,-0.0774 0,-0.26427c0.22167,-0.28031 0.41798,-0.26427 0.62697,-0.39641l0.31348,-0.39641l0.41798,-0.26427l0.10449,-0.26427" id="svg_7" stroke-width="4" fill="none"/>
  <path d="m22.44894,8.2995c0,0.12063 0,0.24125 0,0.48251c0,0.12063 0,0.36188 0,0.72376c0,0.48251 -0.05797,0.72844 0,1.08565c0.0611,0.37653 0.18048,0.83327 0.24125,1.3269c0.02948,0.23945 0.24125,0.84439 0.24125,1.20627c0,0.60314 0.18065,0.83544 0.24125,1.44753c0.04754,0.48016 -0.0192,0.98572 0.12063,1.44753c0.12603,0.41627 0.35856,0.80187 0.48251,1.3269c0.11086,0.4696 0.12063,0.72376 0.36188,1.20627c0.12063,0.24125 0.29991,0.58187 0.36188,0.84439c0.08314,0.3522 0.42141,0.58849 0.48251,0.96502c0.03864,0.23814 0,0.60314 0,0.72376c0,0.48251 0.23585,0.66938 0.36188,1.08565c0.06991,0.2309 0.12063,0.48251 0.12063,0.60314c0,0.12063 0.12063,0.12063 0.12063,0.24125c0,0.24125 0.03533,0.27658 0.12063,0.36188c0.0853,0.0853 0,0.24125 0.24125,0.24125c0.12063,0 0.03533,0.27658 0.12063,0.36188c0.0853,0.0853 0,0 -0.12063,-0.12063l-0.24125,-0.24125l0,-0.12063" id="svg_8" stroke-width="4" stroke="#0b98ab" fill="none"/>
  <path d="m16.90009,15.17525c0.12063,0 0.24125,0 0.48251,0c0.12063,0 0.24216,-0.10589 0.36188,-0.12063c0.49363,-0.06077 1.08696,-0.35547 1.68878,-0.48251c1.08815,-0.22969 1.80334,-0.51164 2.89505,-0.72376c0.72028,-0.13995 1.92603,-0.50461 2.53317,-0.60314c0.95997,-0.15578 1.92613,-0.49661 2.77443,-0.72376c0.96086,-0.2573 1.56815,-0.36188 2.05066,-0.60314l0.36188,0l0.12063,0" id="svg_9" stroke-width="4" stroke="#0b98ab" fill="none"/>
  <path d="m28.11842,17.10529c0.12063,0 0.36188,0 0.48251,0c0.12063,0 0.28301,0.0851 0.48251,0.36188c0.15771,0.21881 0.3993,0.44861 0.72376,0.84439c0.27574,0.33635 0.5239,0.70881 0.72376,1.3269c0.15302,0.47323 0.49648,1.08128 0.60313,1.44753c0.13905,0.47753 0.47919,1.04313 0.60314,1.56816c0.05543,0.2348 0.18251,0.55416 0.36188,0.84439c0.20054,0.32449 0.12063,0.60314 0.12063,0.96502c0,0.12063 0.05534,0.44553 0.12063,0.60314c0.04616,0.11145 0.12062,0.24125 0.12062,0.48251c0,0.12063 -0.03533,0.32655 -0.12062,0.24125c-0.0853,-0.0853 -0.10933,-0.1331 -0.24126,-0.24125c-0.33635,-0.27574 -0.4261,-0.62713 -0.60313,-0.96502c-0.27992,-0.53425 -0.58518,-0.7823 -0.84439,-1.3269c-0.21375,-0.44909 -0.30111,-1.07452 -0.36188,-1.56816c-0.04422,-0.35917 -0.24125,-0.72376 -0.24125,-0.96502c0,-0.48251 0,-0.84439 0,-1.20627c0,-0.36188 0.27434,-0.83051 0.36188,-1.08565c0.19962,-0.58179 0.21345,-0.89156 0.48251,-1.3269c0.20054,-0.32449 0.41241,-0.77429 0.60314,-0.96502c0.38146,-0.38146 0.56865,-0.7493 0.84439,-1.08565c0.10815,-0.13193 0.50087,-0.26956 0.72376,-0.36188c0.31521,-0.13057 0.3249,-0.2966 0.48251,-0.36188c0.11144,-0.04616 0.36188,0 0.48251,0c0.12062,0 0.18687,0.23585 0.60313,0.36188c0.11545,0.03496 0.50087,0.14893 0.72376,0.24125c0.15761,0.06528 0.37107,0.43635 0.48251,0.48251c0.15761,0.06528 0.15596,0.15596 0.24126,0.24125c0.17059,0.17059 0.36706,0.2063 0.48251,0.24125c0.41627,0.12604 0.47257,0.28792 0.60313,0.60314c0.04616,0.11145 0.12063,0.24125 0.12063,0.36188c0,0.36188 0.19509,0.37106 0.24125,0.48251c0.06528,0.15761 0.12063,0.36188 0.12063,0.48251c0,0.12063 0,0.43254 0,0.60314c0,0.17059 -0.23132,0.1673 -0.36188,0.48251c-0.04616,0.11144 -0.03533,0.27658 -0.12063,0.36188c-0.0853,0.0853 -0.25947,0.05243 -0.48251,0.36188c-0.07053,0.09786 -0.08364,0.17597 -0.24125,0.24125c-0.11145,0.04616 -0.48769,-0.03496 -0.60314,0c-0.41627,0.12604 -0.48251,0.24125 -0.60313,0.24125c-0.12063,0 -0.36188,0 -0.48251,0c-0.12063,0 -0.24126,0 -0.48251,0c-0.12063,0 -0.36188,0 -0.60314,0c-0.12062,0 0,0 0.24126,0c0.12063,0 0.09614,0.15157 0.24125,0.24125c0.32449,0.20055 0.65748,0.2956 0.96502,0.60314c0.30754,0.30754 0.75063,0.56984 1.20627,0.96502c0.25775,0.22355 0.53685,0.41622 0.84439,0.72376c0.30754,0.30754 0.59184,0.49498 0.72376,0.60314c0.33635,0.27574 0.62558,0.44542 0.84439,0.60314c0.27679,0.1995 0.36188,0.24125 0.60314,0.48251l0,0.12063" id="svg_10" stroke-width="4" stroke="#0b98ab" fill="none"/>
  <rect transform="rotate(6.79707 29.4188 4.87966)" stroke="#f9ffa8" id="svg_12" height="1.44753" width="16.31859" y="4.1559" x="21.25951" stroke-width="4" fill="none"/>
  <rect transform="rotate(17.4407 14.7376 34.2115)" stroke="#f9ffa8" id="svg_13" height="0.81357" width="14.03777" y="33.80471" x="7.7187" stroke-width="4" fill="none"/>
 </g>
</svg>