<svg width="45" height="40" xmlns="http://www.w3.org/2000/svg">

 <g>
  <title>Layer 1</title>
  <rect transform="rotate(-21.6679 22.5 19.8277)" stroke="#e6e6e6" id="svg_2" height="23.59124" width="28.84999" y="8.03206" x="8.07501" stroke-width="4" fill="#e6e6e6"/>
  <rect transform="rotate(2.50981 28.8801 4.39715)" stroke="#f9ffa8" id="svg_12" height="1.44753" width="16.31859" y="3.67339" x="20.72078" stroke-width="4" fill="none"/>
  <rect transform="rotate(7.52057 14.5607 35.7796)" stroke="#f9ffa8" id="svg_13" height="0.81357" width="14.03777" y="35.37286" x="7.54185" stroke-width="4" fill="none"/>
  <g stroke-width="4" stroke="#EDB6DC" fill="none" id="svg_15">
   <path transform="rotate(-21.6679 15.6816 20.1363)" stroke="#f65858" d="m17.31539,10.62282c-0.10449,0 -0.20899,0 -0.41798,0c-0.10449,0 -0.31348,0 -0.62697,0c-0.20899,0 -0.65083,-0.01956 -0.94045,0.13214c-0.40958,0.21454 -0.69277,0.34684 -1.04494,0.66068c-0.30797,0.27444 -0.55351,0.60966 -0.83595,0.92496c-0.35033,0.39108 -0.73738,0.64979 -1.04494,0.92496c-0.42651,0.38159 -0.67073,0.56245 -0.83595,1.18923c-0.03304,0.12536 -0.10449,0.52855 -0.10449,0.66068c0,0.13214 -0.03213,0.28885 0.10449,0.52855c0.08641,0.1516 0.31348,0.39641 0.41798,0.66068c0.10449,0.26427 0.12134,0.50163 0.52247,0.92496c0.17939,0.18932 0.52247,0.66069 0.94045,1.18923c0.20899,0.26427 0.65596,0.77775 1.14944,1.18923c0.46978,0.39172 1.03246,0.69398 1.67191,1.0571c0.51333,0.2915 1.32734,0.60301 1.8809,0.92496c0.60042,0.34921 1.03256,0.42155 1.35843,0.66068c0.20209,0.1483 0.31348,0.26427 0.41798,0.26427c0.1045,0 0.24832,0.01061 0.41798,0.52855c0.07998,0.24416 -0.06497,0.66545 -0.10449,0.92496c-0.10642,0.69874 -0.38988,1.09464 -0.94045,1.71778c-0.49856,0.56428 -1.57715,1.2945 -2.50786,1.84992c-1.05654,0.63051 -1.74755,1.05061 -3.03033,1.45351c-0.61687,0.19375 -1.36156,0.46397 -1.7764,0.52855c-0.42761,0.06657 -0.52247,0.13214 -0.62697,0.13214c-0.20899,0 -0.38737,-0.0387 -0.31348,-0.13214c0.07389,-0.09344 -0.14778,-0.0774 0,-0.26427c0.22167,-0.28031 0.41798,-0.26427 0.62697,-0.39641l0.31348,-0.39641l0.41798,-0.26427l0.10449,-0.26427" id="svg_7" stroke-width="4" fill="none"/>
   <path transform="rotate(-21.6679 23.1209 16.1575)" d="m21.30708,8.2995c0,0.12063 0,0.24125 0,0.48251c0,0.12063 0,0.36188 0,0.72376c0,0.48251 -0.05797,0.72844 0,1.08565c0.0611,0.37653 0.18048,0.83327 0.24125,1.3269c0.02948,0.23945 0.24125,0.84439 0.24125,1.20627c0,0.60314 0.18065,0.83544 0.24125,1.44753c0.04754,0.48016 -0.0192,0.98572 0.12063,1.44753c0.12603,0.41627 0.35856,0.80187 0.48251,1.3269c0.11086,0.4696 0.12063,0.72376 0.36188,1.20627c0.12063,0.24125 0.29991,0.58187 0.36188,0.84439c0.08314,0.3522 0.42141,0.58849 0.48251,0.96502c0.03864,0.23814 0,0.60314 0,0.72376c0,0.48251 0.23585,0.66938 0.36188,1.08565c0.06991,0.2309 0.12063,0.48251 0.12063,0.60314c0,0.12063 0.12063,0.12063 0.12063,0.24125c0,0.24125 0.03533,0.27658 0.12063,0.36188c0.0853,0.0853 0,0.24125 0.24125,0.24125c0.12063,0 0.03533,0.27658 0.12063,0.36188c0.0853,0.0853 0,0 -0.12063,-0.12063l-0.24125,-0.24125l0,-0.12063" id="svg_8" stroke-width="4" stroke="#f65858" fill="none"/>
   <path transform="rotate(-21.6679 22.3927 13.5468)" d="m15.75823,15.17525c0.12063,0 0.24125,0 0.48251,0c0.12063,0 0.24216,-0.10589 0.36188,-0.12063c0.49363,-0.06077 1.08696,-0.35547 1.68878,-0.48251c1.08815,-0.22969 1.80334,-0.51164 2.89505,-0.72376c0.72028,-0.13995 1.92603,-0.50461 2.53317,-0.60314c0.95997,-0.15578 1.92613,-0.49661 2.77443,-0.72376c0.96086,-0.2573 1.56815,-0.36188 2.05066,-0.60314l0.36188,0l0.12063,0" id="svg_9" stroke-width="4" stroke="#f65858" fill="none"/>
   <path transform="rotate(-21.6679 32.5857 20.0605)" d="m26.97656,17.10529c0.12063,0 0.36188,0 0.48251,0c0.12063,0 0.28301,0.0851 0.48251,0.36188c0.15771,0.21881 0.3993,0.44861 0.72376,0.84439c0.27574,0.33635 0.5239,0.70881 0.72376,1.3269c0.15302,0.47323 0.49648,1.08128 0.60313,1.44753c0.13905,0.47753 0.47919,1.04313 0.60314,1.56816c0.05543,0.2348 0.18251,0.55416 0.36188,0.84439c0.20054,0.32449 0.12063,0.60314 0.12063,0.96502c0,0.12063 0.05534,0.44553 0.12063,0.60314c0.04616,0.11145 0.12062,0.24125 0.12062,0.48251c0,0.12063 -0.03533,0.32655 -0.12062,0.24125c-0.0853,-0.0853 -0.10933,-0.1331 -0.24126,-0.24125c-0.33635,-0.27574 -0.4261,-0.62713 -0.60313,-0.96502c-0.27992,-0.53425 -0.58518,-0.7823 -0.84439,-1.3269c-0.21375,-0.44909 -0.30111,-1.07452 -0.36188,-1.56816c-0.04422,-0.35917 -0.24125,-0.72376 -0.24125,-0.96502c0,-0.48251 0,-0.84439 0,-1.20627c0,-0.36188 0.27434,-0.83051 0.36188,-1.08565c0.19962,-0.58179 0.21345,-0.89156 0.48251,-1.3269c0.20054,-0.32449 0.41241,-0.77429 0.60314,-0.96502c0.38146,-0.38146 0.56865,-0.7493 0.84439,-1.08565c0.10815,-0.13193 0.50087,-0.26956 0.72376,-0.36188c0.31521,-0.13057 0.3249,-0.2966 0.48251,-0.36188c0.11144,-0.04616 0.36188,0 0.48251,0c0.12062,0 0.18687,0.23585 0.60313,0.36188c0.11545,0.03496 0.50087,0.14893 0.72376,0.24125c0.15761,0.06528 0.37107,0.43635 0.48251,0.48251c0.15761,0.06528 0.15596,0.15596 0.24126,0.24125c0.17059,0.17059 0.36706,0.2063 0.48251,0.24125c0.41627,0.12604 0.47257,0.28792 0.60313,0.60314c0.04616,0.11145 0.12063,0.24125 0.12063,0.36188c0,0.36188 0.19509,0.37106 0.24125,0.48251c0.06528,0.15761 0.12063,0.36188 0.12063,0.48251c0,0.12063 0,0.43254 0,0.60314c0,0.17059 -0.23132,0.1673 -0.36188,0.48251c-0.04616,0.11144 -0.03533,0.27658 -0.12063,0.36188c-0.0853,0.0853 -0.25947,0.05243 -0.48251,0.36188c-0.07053,0.09786 -0.08364,0.17597 -0.24125,0.24125c-0.11145,0.04616 -0.48769,-0.03496 -0.60314,0c-0.41627,0.12604 -0.48251,0.24125 -0.60313,0.24125c-0.12063,0 -0.36188,0 -0.48251,0c-0.12063,0 -0.24126,0 -0.48251,0c-0.12063,0 -0.36188,0 -0.60314,0c-0.12062,0 0,0 0.24126,0c0.12063,0 0.09614,0.15157 0.24125,0.24125c0.32449,0.20055 0.65748,0.2956 0.96502,0.60314c0.30754,0.30754 0.75063,0.56984 1.20627,0.96502c0.25775,0.22355 0.53685,0.41622 0.84439,0.72376c0.30754,0.30754 0.59184,0.49498 0.72376,0.60314c0.33635,0.27574 0.62558,0.44542 0.84439,0.60314c0.27679,0.1995 0.36188,0.24125 0.60314,0.48251l0,0.12063" id="svg_10" stroke-width="4" stroke="#f65858" fill="none"/>
  </g>
 </g>
</svg>